<svg xmlns="http://www.w3.org/2000/svg" xmlns:xlink="http://www.w3.org/1999/xlink" version="1.1" id="Calque_1" x="0px" y="0px" style="enable-background:new 0 0 388 347.6;" xml:space="preserve" viewBox="82.06 18.8 251.41 298.9">
<style type="text/css">
	.st0{fill:#FFFFFF;}
	.st1{fill-rule:evenodd;clip-rule:evenodd;fill:#FFFFFF;}
</style>
<g>
	<path class="st0" d="M109.3,284.1h4.4v19.1c0,3.3-0.4,6-1.1,7.9c-0.8,2-2.1,3.5-4.1,4.8c-2,1.2-4.5,1.8-7.7,1.8   c-3.1,0-5.6-0.5-7.6-1.6c-2-1.1-3.4-2.6-4.2-4.6c-0.8-2-1.3-4.8-1.3-8.3v-19.1h4.4v19.1c0,2.9,0.3,5,0.8,6.4   c0.5,1.4,1.5,2.4,2.8,3.2c1.3,0.7,2.9,1.1,4.8,1.1c3.2,0,5.5-0.7,6.9-2.2c1.4-1.5,2.1-4.3,2.1-8.4V284.1L109.3,284.1z"/>
	<polygon class="st0" points="132.3,317.2 132.3,284.1 136.8,284.1 154.2,310.1 154.2,284.1 158.4,284.1 158.4,317.2 153.9,317.2    136.5,291.2 136.5,317.2 132.3,317.2  "/>
	<path class="st0" d="M200.7,305.6l4.4,1.1c-0.9,3.6-2.6,6.3-5,8.2c-2.4,1.9-5.3,2.8-8.8,2.8c-3.6,0-6.5-0.7-8.7-2.2   c-2.2-1.5-3.9-3.6-5.1-6.3c-1.2-2.8-1.8-5.7-1.8-8.9c0-3.4,0.7-6.5,2-9c1.3-2.6,3.2-4.5,5.6-5.9c2.4-1.3,5.1-2,8-2   c3.3,0,6.1,0.8,8.4,2.5c2.3,1.7,3.8,4.1,4.7,7.1l-4.3,1c-0.8-2.4-1.9-4.2-3.3-5.3c-1.5-1.1-3.3-1.7-5.5-1.7c-2.5,0-4.7,0.6-6.4,1.8   c-1.7,1.2-2.9,2.9-3.6,4.9c-0.7,2.1-1,4.2-1,6.4c0,2.8,0.4,5.3,1.2,7.4c0.8,2.1,2.1,3.7,3.8,4.7c1.7,1,3.6,1.6,5.6,1.6   c2.5,0,4.5-0.7,6.2-2.1C198.9,310.5,200.1,308.4,200.7,305.6L200.7,305.6z"/>
	<polygon class="st0" points="230.2,317.2 230.2,288 219.3,288 219.3,284.1 245.5,284.1 245.5,288 234.6,288 234.6,317.2    230.2,317.2  "/>
	<path class="st0" d="M254.3,317.2l12.7-33.1h4.7l13.6,33.1h-5l-3.9-10h-13.8l-3.6,10H254.3L254.3,317.2z M263.8,303.6h11.2   l-3.5-9.2c-1-2.8-1.8-5.1-2.3-6.9c-0.4,2.1-1,4.2-1.8,6.3L263.8,303.6L263.8,303.6z"/>
	<path class="st0" d="M300.1,317.2v-33.1h11.4c2.6,0,4.5,0.2,5.9,0.5c1.9,0.4,3.5,1.2,4.9,2.4c1.7,1.5,3.1,3.4,3.9,5.7   c0.9,2.3,1.3,4.9,1.3,7.9c0,2.5-0.3,4.7-0.9,6.7c-0.6,1.9-1.3,3.6-2.3,4.8c-0.9,1.3-1.9,2.3-3,3c-1.1,0.7-2.4,1.3-3.9,1.7   c-1.6,0.4-3.3,0.6-5.3,0.6H300.1L300.1,317.2z M304.5,313.3h7.1c2.2,0,3.9-0.2,5.1-0.6c1.2-0.4,2.2-1,3-1.7c1-1,1.9-2.4,2.4-4.2   c0.6-1.8,0.9-3.9,0.9-6.4c0-3.5-0.6-6.1-1.7-8c-1.1-1.9-2.5-3.1-4.1-3.7c-1.2-0.5-3.1-0.7-5.7-0.7h-7V313.3L304.5,313.3z"/>
	<polygon class="st1" points="86.8,275.4 327.4,275.4 327.4,276.7 86.8,276.7 86.8,275.4  "/>
	<path class="st0" d="M102,245.9h2.8v12.4c0,2.1-0.2,3.9-0.7,5.1c-0.5,1.3-1.3,2.3-2.6,3.1c-1.2,0.8-2.9,1.2-4.9,1.2   c-1.9,0-3.5-0.3-4.8-1c-1.2-0.7-2.1-1.7-2.7-3c-0.5-1.3-0.8-3.1-0.8-5.4v-12.4h2.8v12.4c0,1.9,0.2,3.2,0.5,4.1   c0.3,0.9,0.9,1.6,1.7,2c0.8,0.5,1.8,0.7,3,0.7c2,0,3.5-0.5,4.3-1.4c0.9-0.9,1.3-2.8,1.3-5.4V245.9L102,245.9z"/>
	<polygon class="st0" points="109.3,267.3 109.3,245.9 112.1,245.9 123.1,262.7 123.1,245.9 125.7,245.9 125.7,267.3 122.9,267.3    112,250.5 112,267.3 109.3,267.3  "/>
	<polygon class="st0" points="130.8,267.3 130.8,245.9 133.6,245.9 133.6,267.3 130.8,267.3  "/>
	<polygon class="st0" points="143.7,267.3 143.7,248.4 136.9,248.4 136.9,245.9 153.3,245.9 153.3,248.4 146.5,248.4 146.5,267.3    143.7,267.3  "/>
	<polygon class="st0" points="156.2,267.3 156.2,245.9 171.3,245.9 171.3,248.4 159,248.4 159,255 170.5,255 170.5,257.5 159,257.5    159,264.8 171.8,264.8 171.8,267.3 156.2,267.3  "/>
	<path class="st0" d="M175.6,267.3v-21.4h7.2c1.6,0,2.9,0.1,3.7,0.3c1.2,0.3,2.2,0.8,3.1,1.5c1.1,1,1.9,2.2,2.5,3.7   c0.5,1.5,0.8,3.2,0.8,5.1c0,1.6-0.2,3.1-0.6,4.3c-0.4,1.3-0.8,2.3-1.4,3.1c-0.6,0.8-1.2,1.5-1.9,1.9c-0.7,0.5-1.5,0.8-2.5,1.1   c-1,0.2-2.1,0.4-3.3,0.4H175.6L175.6,267.3z M178.3,264.8h4.4c1.4,0,2.5-0.1,3.2-0.4c0.8-0.3,1.4-0.6,1.9-1.1   c0.7-0.7,1.2-1.6,1.5-2.7c0.4-1.1,0.5-2.5,0.5-4.1c0-2.2-0.4-4-1.1-5.2c-0.7-1.2-1.6-2-2.6-2.4c-0.7-0.3-1.9-0.4-3.6-0.4h-4.4   V264.8L178.3,264.8z"/>
	<polygon class="st0" points="204.6,267.3 204.6,245.9 207.4,245.9 218.4,262.7 218.4,245.9 221,245.9 221,267.3 218.2,267.3    207.2,250.5 207.2,267.3 204.6,267.3  "/>
	<path class="st0" d="M223.3,267.3l8-21.4h3l8.5,21.4h-3.1l-2.4-6.5h-8.7l-2.3,6.5H223.3L223.3,267.3z M229.3,258.5h7.1l-2.2-5.9   c-0.7-1.8-1.2-3.3-1.5-4.4c-0.3,1.4-0.6,2.7-1.1,4.1L229.3,258.5L229.3,258.5z"/>
	<polygon class="st0" points="248.1,267.3 248.1,248.4 241.3,248.4 241.3,245.9 257.8,245.9 257.8,248.4 250.9,248.4 250.9,267.3    248.1,267.3  "/>
	<polygon class="st0" points="261.1,267.3 261.1,245.9 263.8,245.9 263.8,267.3 261.1,267.3  "/>
	<path class="st0" d="M267.8,256.9c0-3.6,0.9-6.3,2.8-8.4c1.9-2,4.2-3,7.2-3c1.9,0,3.7,0.5,5.2,1.4c1.5,0.9,2.7,2.3,3.5,4   c0.8,1.7,1.2,3.6,1.2,5.7c0,2.2-0.4,4.1-1.3,5.8c-0.9,1.7-2.1,3-3.6,3.9c-1.6,0.9-3.2,1.3-5.1,1.3c-2,0-3.7-0.5-5.3-1.5   c-1.5-1-2.7-2.3-3.5-4C268.2,260.5,267.8,258.7,267.8,256.9L267.8,256.9z M270.7,256.9c0,2.6,0.7,4.6,2,6.1c1.4,1.5,3,2.2,5.1,2.2   c2.1,0,3.8-0.7,5.1-2.2c1.3-1.5,2-3.6,2-6.4c0-1.7-0.3-3.3-0.9-4.6c-0.6-1.3-1.4-2.3-2.5-3c-1.1-0.7-2.3-1.1-3.7-1.1   c-2,0-3.6,0.7-5,2.1C271.4,251.4,270.7,253.7,270.7,256.9L270.7,256.9z"/>
	<polygon class="st0" points="291.3,267.3 291.3,245.9 294.1,245.9 305,262.7 305,245.9 307.7,245.9 307.7,267.3 304.8,267.3    293.9,250.5 293.9,267.3 291.3,267.3  "/>
	<path class="st0" d="M311.4,260.4l2.6-0.2c0.1,1.1,0.4,2,0.9,2.6c0.4,0.7,1.1,1.2,2.1,1.7c0.9,0.4,2,0.6,3.2,0.6   c1.1,0,2-0.2,2.8-0.5c0.8-0.3,1.4-0.8,1.8-1.3c0.4-0.6,0.6-1.2,0.6-1.8c0-0.7-0.2-1.3-0.6-1.8c-0.4-0.5-1-0.9-1.9-1.3   c-0.6-0.2-1.8-0.6-3.7-1c-1.9-0.5-3.3-0.9-4-1.3c-1-0.5-1.7-1.2-2.2-2c-0.5-0.8-0.7-1.7-0.7-2.7c0-1.1,0.3-2.1,0.9-3   c0.6-0.9,1.5-1.7,2.6-2.1c1.1-0.5,2.4-0.7,3.8-0.7c1.5,0,2.9,0.3,4.1,0.8c1.2,0.5,2.1,1.3,2.7,2.3c0.6,1,1,2.1,1,3.4l-2.6,0.2   c-0.1-1.4-0.6-2.4-1.4-3.1c-0.8-0.7-2-1-3.6-1c-1.7,0-2.9,0.3-3.6,0.9c-0.8,0.6-1.1,1.4-1.1,2.3c0,0.8,0.3,1.4,0.8,1.9   c0.5,0.5,1.9,1,4.2,1.5c2.2,0.5,3.8,1,4.6,1.4c1.2,0.6,2.1,1.3,2.7,2.2c0.6,0.9,0.9,1.9,0.9,3s-0.3,2.2-0.9,3.2   c-0.6,1-1.5,1.8-2.7,2.4c-1.2,0.6-2.5,0.8-4,0.8c-1.9,0-3.5-0.3-4.7-0.8c-1.3-0.6-2.3-1.4-3-2.5   C311.8,263.1,311.4,261.8,311.4,260.4L311.4,260.4z"/>
</g>
<path id="emblem" class="st0" d="M282.4,209.7c0.1,0,0.3,0.1,0.3,0.2c-4.6,4.7-10.5,7.9-16.1,9.5c-4.2,1.2-8.4,1.4-12.7,0.9  c-6.6-0.7-12.5-3.4-18-7c-3.3-2.2-6.5-4.4-9.8-6.6c-3.7-2.5-7.9-3-12.2-2.3c-2.3,0.3-0.6,1.4-0.2,1.6c5.8,2.9,11.3,6.3,16.4,10.2  c3.5,2.6,9.7,8.5,9.7,8.5l-4.6,4c0,0-3.5-4-5.1-5.5c-10.2-10.6-19.2-15.3-21.2-16.4c-0.4-0.2-0.7-0.4-1-0.4c-0.4,0-0.7,0.2-1,0.4  c-2,1.2-11,5.8-21.2,16.4c-1.5,1.5-5.1,5.5-5.1,5.5l-4.6-4c0,0,6.2-6,9.7-8.5c5.1-4,10.6-7.4,16.4-10.2c0.4-0.2,2.1-1.3-0.2-1.6  c-4.3-0.7-8.5-0.2-12.2,2.3c-3.3,2.2-6.5,4.4-9.8,6.6c-5.5,3.6-11.3,6.3-18,7c-4.3,0.5-8.5,0.3-12.7-0.9c-5.6-1.6-11.5-4.8-16.1-9.5  c0.1-0.1,0.2-0.2,0.4-0.1c0.4,0.2,0.6,0.3,1,0.5c6.8,3.5,14,3.9,21.3,2.5c5-1,9.7-3,14.4-5c3.4-1.4,6.7-3,10.1-4.1  c9-3,18-2.9,27.1-0.6c0.1,0,0.3,0.1,0.5,0.1c0.2,0,0.3,0,0.5-0.1c9.1-2.3,18.2-2.3,27.1,0.6c3.5,1.1,6.8,2.7,10.1,4.1  c4.7,2,9.4,4,14.4,5c7.4,1.4,14.5,1,21.3-2.5C281.8,210,282,209.8,282.4,209.7z M303.9,190.2c-3.9,3-6.4,4-9.6,5.1  c-4.9,1.7-10.1,2-15.2,2.3c-6.7,0.4-13.2,0.6-19.8,1.7c0,0-0.1,0-0.1,0c-0.4,0.1-0.6-0.1-0.5-0.3c0,0,0.1-0.1,0.1-0.1  c5.9-2.2,9.9-6.7,12.9-12.5c2.1-4,5.5-11.7,6.5-13c0,0,0-0.3-0.1-0.3c-0.4,0.1-6.9,5.7-9.9,8.4c-3.7,3.4-7.1,7-10.8,10.4  c-5.7,5.5-13.9,7.9-16.9,8.6c-0.1,0-0.2,0.1-0.2,0.1c-0.1,0.1-0.1,0.2-0.1,0.3c0,0,0,0,0,0c0,0,0.1,0,0.1,0c2.3,0.5,9,2,12.4,2.9  c5.3,1.4,10.5,2.6,16,3c5.9,0.4,11.8-0.2,17.3-2.3c6.2-2.3,13.9-7.8,18.3-14.4c0,0,0,0,0-0.1C304.1,190.1,303.9,190.1,303.9,190.2z   M324,159.3c-0.2,0.2-3.5,4.5-11.5,10.1c-3.9,2.7-7.5,4.5-11.8,6.5c-5.4,2.5-10,4.8-14.5,8.5c-0.3,0.2-0.5,0.4-0.8,0.6  c-0.2,0.1-0.3-0.1-0.1-0.3c0.2-0.3,6.9-7.1,8.9-21.7c0.7-5.1,0.8-10.6,2.4-15.5c0-0.2,0-0.3-0.1-0.4c0,0-0.1,0-0.1,0  c-4.9,5.6-9,14.4-10.9,19.9c-1.4,3.9-2.6,7.8-4,11.6c-1.9,5.2-4.4,10.2-8.4,14.1c-0.1,0.1-0.4,0.4-0.4,0.4s0,0.1-0.1,0.2  c0,0,0,0,0,0c0.6-0.1,1-0.2,1.3-0.2c4.5-0.9,9-2,13.5-2.8c7.5-1.3,14.1-3.9,20.2-8.6c6.1-4.7,11.3-10.1,14.6-17.1  c0.9-1.8,1.7-3.6,2.2-5.6C324.3,159.2,324.1,159.2,324,159.3z M332.8,124.7c-1.9,6.2-5.4,11.2-10.5,16.6c-4,4.1-11.7,12-15.3,17.4  c-0.1,0.2-0.4,0.1-0.3-0.2c1.7-4.7,2.4-13.1,1.4-19.5c-0.9-5.5-3.3-11.5-3.9-18.3c0,0,0,0,0-0.1c0-0.1-0.2-0.3-0.3-0.3  c0,0-0.1,0.1-0.2,0.6c-1.2,3.9-2.6,8.8-2.8,13.4c-0.3,5.5,0.7,12.6,0.3,18.3c-0.5,6.5-1,13-4,19c0,0,0,0.1,0,0.1  c-0.1,0.2,0.1,0.5,0.1,0.5s0,0,0,0c2.4-1.5,9.3-5.6,13.8-8.6c5.6-3.8,10.6-8.3,14.5-13.9c4.9-7,7.7-15.5,7.6-24.2  c0-0.3,0-0.8-0.1-0.9C333.1,124.5,332.8,124.7,332.8,124.7z M318.2,128.4c0,0.1-0.1,0.1-0.1,0.1c-0.1,0-0.2-0.1-0.2-0.2  c0.2-1.7,0.2-3.9,0.1-5.6c-0.5-6.5-4.4-11.8-7.8-17.2c-1.8-2.8-4.9-7.7-6.2-11c0,0-0.3-0.2-0.4-0.2c0,0.6,0.1,2.5,0.2,3.7  c1,9.3,3.9,18.3,7,27.1c2,5.9,3.1,10.9,2.4,17.1c-0.1,0.5-0.1,0.6,0.1,0.7c0,0,0,0,0,0c2.1-3,6.2-7.2,8.7-10.3  c2.7-3.3,16.4-18.9,9.6-40.6c-0.4-1.3-0.9-2.4-1.1-2.7c-0.1,0-0.3,0.3-0.3,0.3c0,15.6-7.5,22.3-10.7,33  C319.1,125,318.6,126.9,318.2,128.4z M306.5,79.9c-2.5-2.1-6.2-5.9-8.3-9.3c0,0,0,0,0-0.1c0,0-0.1-0.1-0.1-0.1  c-0.1-0.1-0.3-0.1-0.4-0.1c-0.1,0-0.2,0-0.2,0c0.1,0.6,2.3,7.5,3.7,10.7c2,4.6,5.2,8.5,8.2,12.5c0.2,0.3,0.4,0.6,0.7,0.9  c3,4.1,7.9,12.7,9,17.2c0,0.1,0.3,0.2,0.3,0.2c0.4-1.6,2.4-7.8,3.8-11.9c0.3-0.9,2.9-9.2,3.4-12.9c1.5-10.3-1.9-23.6-7.9-30.9  c-0.1,0-0.2,0.3-0.2,0.4c0.1,0.3,0.2,0.6,0.3,0.9c0.1,0.4,0.3,0.9,0.4,1.4c1.6,6.7,1,11.4,0.3,17.1c-0.6,4.5-1.5,9-1.3,13.6  c0,0.8,0.5,6.4,0.4,6.6c-0.1,0.3-0.3,0.1-0.3-0.1c0,0-0.7-2.1-1.5-3.8c-0.3-0.7-0.6-1.5-0.9-2C313.6,85.7,310.5,83.2,306.5,79.9z   M299.9,38.4c1.9,1.9,3.4,4,4.5,6.4c1.7,3.9,2.1,9.7,3.2,14.1c0.7,2.7,1.1,4.6,2,7.6c0.1,0.3-0.2,0.4-0.3,0.1c0,0,0-0.1-0.1-0.1  c-3.1-4.2-6.9-6.8-12.4-10.2c-3.2-2.1-5.7-4.1-8.1-7.2c-0.4-0.5-0.8-1.1-1.2-1.6c0,0-0.3-0.1-0.4-0.1c0,0.1,0,0.4,0.1,0.7  c0.7,3.5,3.1,10,7.1,13.9c2.9,2.8,6.2,5.2,9.3,7.8c5.5,4.6,9.6,9.6,10.9,11.3c0,0,0.1,0.1,0.1,0.1s0.2,0.2,0.2,0.1c0,0,0,0,0-0.1  c0,0,0,0,0,0c-0.1-0.8-0.1-2.1-0.1-3.6c0-3.4,0.2-7.9,0.3-11c0.1-1.3,0.1-2.5,0.1-3.8c0-3.8-0.4-7.5-2-11.1  c-2.6-5.8-6.4-10.4-12.1-13.2c-0.3-0.2-0.8-0.3-1.1-0.4C299.8,37.9,299.7,38.1,299.9,38.4C299.8,38.3,299.8,38.3,299.9,38.4z   M276.2,27.4c3.3,2.9,6,6.4,8.5,10.1c2.4,3.5,4.7,7,8,9.9c2.1,2.2,8.4,7,9.9,8.2c0,0,0,0,0.1,0.1c0,0,0.1,0,0.1,0s0,0,0-0.1  c-0.3-1.8-3.1-14.9-11.4-21.4c-4.4-3.8-10.3-6.2-16-7.7c-0.1,0.1,0,0.4,0,0.4C275.7,27,275.9,27.2,276.2,27.4z M147,206.9  c5.5-0.4,10.7-1.6,16-3c3.4-0.9,10.1-2.4,12.4-2.9c0,0,0.1,0,0.1,0c0,0,0,0,0,0c0,0-0.1-0.2-0.1-0.3c0,0-0.2-0.1-0.2-0.1  c-3-0.8-11.2-3.2-16.9-8.6c-3.7-3.4-7.1-7-10.8-10.4c-2.9-2.7-9.4-8.3-9.9-8.4c-0.1,0.1-0.1,0.3-0.1,0.3c1,1.3,4.4,9,6.5,13  c3,5.7,7,10.3,12.9,12.5c0,0,0.1,0,0.1,0.1c0.1,0.1-0.1,0.3-0.5,0.3c0,0-0.1,0-0.1,0c-6.6-1.1-13.1-1.4-19.8-1.7  c-5.1-0.3-10.3-0.6-15.2-2.3c-3.2-1.1-5.7-2.1-9.6-5.1c0,0-0.3-0.1-0.4,0c0,0,0,0,0,0.1c4.4,6.6,12.1,12.1,18.3,14.4  C135.3,206.7,141.1,207.3,147,206.9z M141.9,193.3c0.4,0.1,0.7,0.1,1.3,0.2c0,0,0,0,0,0c0-0.1-0.1-0.2-0.1-0.2s-0.3-0.3-0.4-0.4  c-4-4-6.5-8.9-8.4-14.1c-1.4-3.9-2.7-7.8-4-11.6c-1.9-5.5-6-14.2-10.9-19.9c0,0-0.1,0-0.1,0c-0.1,0.1-0.1,0.2-0.1,0.4  c1.6,4.9,1.7,10.4,2.4,15.5c2,14.6,8.7,21.4,8.9,21.7c0.2,0.2,0,0.4-0.1,0.3c-0.3-0.2-0.5-0.4-0.8-0.6c-4.6-3.8-9.2-6-14.5-8.5  c-4.3-2-7.9-3.7-11.8-6.5c-8.1-5.5-11.3-9.8-11.5-10.1c-0.1-0.1-0.3-0.1-0.4-0.1c0.5,2,1.4,3.8,2.2,5.6c3.4,7,8.5,12.4,14.6,17.1  c6.1,4.7,12.7,7.3,20.2,8.6C133,191.3,137.4,192.4,141.9,193.3z M104.7,163.4c4.5,3,11.4,7.1,13.8,8.6c0,0,0,0,0,0s0.2-0.3,0.1-0.5  c0,0,0-0.1,0-0.1c-3-5.9-3.4-12.4-4-19c-0.5-5.7,0.6-12.7,0.3-18.3c-0.2-4.6-1.7-9.5-2.8-13.4c-0.2-0.5-0.2-0.6-0.2-0.6  c-0.1,0-0.2,0.2-0.3,0.3c0,0,0,0,0,0.1c-0.6,6.8-3,12.8-3.9,18.3c-1,6.5-0.3,14.8,1.4,19.5c0.1,0.3-0.2,0.3-0.3,0.2  c-3.6-5.4-11.3-13.2-15.3-17.4c-5.1-5.4-8.6-10.4-10.5-16.6c0,0-0.3-0.2-0.3-0.2c0,0.1-0.1,0.6-0.1,0.9c-0.1,8.6,2.7,17.1,7.6,24.2  C94,155.2,99,159.7,104.7,163.4z M102.3,143.2C102.3,143.1,102.3,143.2,102.3,143.2c0.2-0.2,0.2-0.2,0.2-0.7  c-0.6-6.2,0.4-11.3,2.4-17.1c3.1-8.8,6-17.9,7-27.1c0.1-1.2,0.2-3.1,0.2-3.7c-0.1,0-0.3,0.1-0.4,0.2c-1.3,3.3-4.4,8.2-6.2,11  c-3.4,5.4-7.3,10.7-7.8,17.2c-0.1,1.6-0.1,3.8,0.1,5.6c0,0-0.1,0.2-0.2,0.2c0,0-0.1,0-0.1-0.1c-0.4-1.6-0.9-3.5-1.5-5.5  c-3.1-10.7-10.7-17.4-10.7-33c0-0.1-0.2-0.3-0.3-0.3c-0.2,0.2-0.7,1.4-1.1,2.7c-6.7,21.7,6.9,37.3,9.6,40.6  C96.2,135.9,100.2,140.1,102.3,143.2z M92.5,100c1.5,4.2,3.4,10.3,3.8,11.9c0,0,0.3-0.1,0.3-0.2c1.2-4.5,6-13.1,9-17.2  c0.2-0.3,0.4-0.6,0.7-0.9c3-4,6.2-7.9,8.2-12.5c1.4-3.2,3.5-10.1,3.7-10.7c0,0-0.1,0-0.2,0c0,0-0.2,0-0.4,0.1c0,0-0.1,0-0.1,0.1  c0,0,0,0,0,0.1c-2.2,3.3-5.8,7.1-8.3,9.3c-4,3.3-7.1,5.7-9.5,10.5c-0.3,0.5-0.6,1.2-0.9,2c-0.7,1.7-1.5,3.8-1.5,3.8  c0,0.1-0.3,0.3-0.3,0.1c-0.1-0.2,0.4-5.8,0.4-6.6c0.2-4.6-0.6-9.1-1.3-13.6C95.5,70.4,95,65.7,96.6,59c0.1-0.5,0.2-0.9,0.4-1.4  c0.1-0.3,0.2-0.6,0.3-0.9c0-0.1-0.1-0.3-0.2-0.4c-6,7.3-9.4,20.6-7.9,30.9C89.7,90.8,92.2,99.2,92.5,100z M101.2,77.4  c0,1.5,0,2.8-0.1,3.6c0,0,0,0,0,0c0,0,0,0,0,0.1c0,0.1,0.2-0.1,0.2-0.1s0,0,0.1-0.1c1.3-1.7,5.3-6.7,10.9-11.3  c3.1-2.6,6.4-5,9.3-7.8c4-3.9,6.4-10.4,7.1-13.9c0-0.3,0.1-0.6,0.1-0.7c-0.1,0-0.3,0.1-0.4,0.1c-0.4,0.5-0.8,1.1-1.2,1.6  c-2.4,3.2-4.8,5.1-8.1,7.2c-5.5,3.4-9.3,6.1-12.4,10.2c0,0,0,0.1-0.1,0.1c-0.1,0.3-0.4,0.1-0.3-0.1c0.9-3,1.3-4.9,2-7.6  c1.1-4.4,1.6-10.2,3.2-14.1c1-2.5,2.5-4.6,4.5-6.4c0,0,0,0,0-0.1c0.1-0.2,0-0.4,0-0.4c-0.3,0.1-0.7,0.2-1.1,0.4  c-5.7,2.8-9.5,7.4-12.1,13.2c-1.6,3.6-2,7.3-2,11.1c0,1.3,0,2.5,0.1,3.8C101,69.5,101.2,74,101.2,77.4z M113,55.6c0,0,0.1,0,0.1,0  c0,0,0,0,0.1-0.1c1.6-1.2,7.8-6.1,9.9-8.2c3.2-2.8,5.6-6.4,8-9.9c2.5-3.6,5.1-7.1,8.5-10.1c0.3-0.2,0.5-0.4,0.7-0.7  c0,0,0.1-0.3,0-0.4c-5.7,1.6-11.6,3.9-16,7.7C116.2,40.6,113.4,53.7,113,55.6C113,55.6,113,55.6,113,55.6z M205.7,127.2  c0.6-1-1-1.6-1.4,0.1C203.9,128.9,205,128.1,205.7,127.2z M223.2,86.7c-0.6-0.3-3.2,2.8-2.8,3.3C220.6,90.2,223.4,86.8,223.2,86.7z   M223.7,86.1c0.4,0.2,2.1-0.7,1.8-1c-0.3-0.3-2.3-1.2-2.4-0.6C223.1,85.4,223.3,85.9,223.7,86.1z M254.6,113.2  c-0.8,0-1.7,1.2-1.4,1.2c0.6,0,1,0.4,1.5,0.3C255.5,114.5,255.4,113.1,254.6,113.2z M243.4,84c-0.7,0-0.9,0.8-0.2,1.1  c0.3,0.2,1.2,0,1.7-0.3c0.5-0.3,1-0.6,0.9-1.4c-0.1-0.4-1.1-1.6-0.5-2.1c0.6-0.5,1.1,0.3,1.7,0.1c0.7-0.3,0.6-0.6,0.6-1.2  c0-0.8-0.3-1.8-1.2-1.8c-0.7,0-1.9,1.8-1.9,1.9c-0.1,0.2-0.3,0.9,0,1.5C244.9,82.9,244.7,84,243.4,84z M258.6,84.1  c0,0.4,1.2,3.4,1.3,4.2c0.1,0.8,0.4,3.2,1,2.9c0.4-0.2,0.4-1.6,0.3-2.2c-0.3-1.7-0.6-3.1-1.2-5c-0.3-1-1.7-4.2-2.2-4.1  c-0.4,0.1,0.7,2.4,0.9,3.1C258.8,83.5,258.6,83.7,258.6,84.1z M250.6,45c0.7,0.3,0.7-1.1-0.5-2.1c-1.3-1-2.9-0.5-2.5,0  C248,43.3,249.9,44.8,250.6,45z M216.1,35.1c-1.5-1-0.2-2.3-1.4-3.2c-0.8-0.6-3.2,0-3.8,0.7c-1,1.3,1.3,0.9,2.2,1.3  c0.9,0.4,3,2.2,3.3,1.8C216.7,35.4,216.2,35.3,216.1,35.1z M225.2,30.5c-2-0.9-9.7-0.9-9.5,1.1c0.2,1.7,4.4,0.1,5.5,0  C222.4,31.5,227,31.5,225.2,30.5z M202.9,119.3c-0.1-0.4-0.8-0.3-0.6,0c0.2,0.3-0.2,0.7,0.1,1.1c0.4,0.5,1.4,0.4,1.9,0  c0.3-0.3,0.1-0.9-0.1-1C203.9,119.3,203,119.6,202.9,119.3z M200,104.1c0.6,0,0.6-0.5,1-0.5c0.4,0,0.1,0.5,0.7,0.5  c0.6,0,1.3-1.6-0.7-1.6C199.2,102.5,199.5,104.1,200,104.1z M202.6,105.8c-1.3-0.3-1,0.4-1.8,0.5c-1.3,0.1-0.1-0.9-0.8-1.4  c-0.3-0.2-1,0.9-1.1,1.6c0,0.3,0,1.5,0.5,1.5c0.5,0,3.4,0.4,4.4,0.6C204.9,108.7,203.8,106.1,202.6,105.8z M188.5,121  c0.4,0,0.7-1.4,0.4-2.1c-0.2-0.7-1.5-0.2-1.6,0.1C187.2,119.4,188.1,121,188.5,121z M170,120.8c0.1-0.6,0-2.3-0.4-2.7  c-0.4-0.3-0.4,0.3-0.7,0.3c-0.2,0-0.2-0.8-0.5-0.8c-0.3,0,0.1,1.4,0.4,2.2C169.2,120.6,170,121.9,170,120.8z M169.6,116.6  c0.1-0.2,0.7-3.1,0.6-4.2c-0.1-1.1-0.7-2.1-0.8-2.1c-0.2,0.1,0.1,0.8,0.1,1.8c0.1,1.6-0.7,2.9-0.7,3.5  C168.8,116.1,169.3,117.3,169.6,116.6z M120.3,106.4c0-23.4,9.1-45.4,25.6-62c16.5-16.5,38.5-25.6,62-25.6c23.4,0,45.4,9.1,62,25.6  c16.5,16.5,25.6,38.5,25.6,62c0,23.4-9.1,45.4-25.6,62c-16.5,16.5-38.5,25.6-62,25.6c-23.4,0-45.4-9.1-62-25.6  C129.4,151.8,120.3,129.8,120.3,106.4z M147.3,164.4l9.5-9.5c-1.9-2-3.6-4.1-5.3-6.2c-0.7-0.3-1.5-0.7-2-1.3c-0.8-1-1.2-2.5-1.6-2.5  c-0.4,0,0,0.9-0.9,1.1c-1.2,0.2-2.8-2.8-3.5-3.8c-0.8-1.3-2-1.3-2.6-2.4c-0.2-0.3-0.6-1.4-1-0.8c-0.7,1-2.9-2.3-3.5-2.1  c-0.6,0.2-0.1,0.9-0.4,1.2c-0.6,0.6-2.5-2.6-3.2-2.2c-0.7,0.3-0.8,0.7-0.9,1.5c0,0.9,1,3.1,0.7,3.2c-0.5,0.2-3.3-6.7-2.7-7  c0.3-0.2,0.3,0.3,0.7,0.1c0.4-0.2-0.3-0.7-0.5-1.5c-0.2-0.8-0.9-0.8-0.9-1.7c-0.1-0.9,1.2-0.6,1.2-1c0-0.4,0.1-0.9,0.4-1.2  c0.4-0.4,1.4,0,1.6-1.2c0.2-1,0.7-0.1,0.8,0.7c0.1,0.9,2.4,1.1,2.5,0.5c0.1-0.4-0.9-0.4-0.9-0.7c0-0.7,1.3,0,2.1,0  c0.4,0,1.1-0.6,1.9-0.1c0.9,0.5,1.5,0.7,2.1,0.8c-2.1-6.3-3.3-13-3.5-20h-13.4C124.5,129.3,132.7,149.1,147.3,164.4z M202.6,86.7  c0.1,0.1-0.9,1-1.4,1.9c1.6-0.6,3.2-1,4.8-1.1V74c-7.5,0.4-14.4,3.4-19.7,8.2l9.5,9.5c1.1-0.9,2.3-1.7,3.6-2.3  c0.3-0.2,0.7-0.3,1-0.5C201,87.8,202.5,86.5,202.6,86.7z M169.4,136.8c0,0.3,0,0.5-0.1,0.8c0.7,0.9,1.4,1.7,2.2,2.5l9.5-9.5  c-4.5-5-7.6-11.2-8.8-18c-0.3,0.1-0.5,0-0.7-0.2c-0.2-0.3,0.1-0.7,0.5-1c-0.1-1-0.2-2-0.3-3.1h-6.3c0.1,1,0.5,2.5-0.2,3  c-0.5,0.4-1.3,0-1.8,0.1c-1.2,0.2-1.5,1.6-1.2,2.6c0.2,0.7,0.5,1.2,0.4,1.9c-0.1,0.7-0.5,1.2,0.6,1.8c1,0.5,2.6,2.5,2.4,2.9  c-0.2,0.4-1.1-0.4-1.2,0.4c0,0.5,1.4-0.1,1.4,1.5c0,1,0.2,2.1,0.5,2.7c0.6,1.4,1.3,2.3,1.2,3.9c0,1.3-0.3,2.7,0.3,4  C168.4,134.3,169.4,135.3,169.4,136.8z M161.5,114.2c-0.8-0.9,0.5-3.4,0.7-3.9c0.2-0.5,1.4-1.2,1.7-2h-5.6c0.1,2.9,0.5,5.8,1.1,8.7  C160.8,117.4,163.4,116.3,161.5,114.2z M158,150.4c0,0-0.1,0-0.1,0.1c0.5,0.6,1,1.2,1.6,1.7l1.1-1.1  C159.5,150.5,158.6,150.1,158,150.4z M181,82.2l-9.5-9.5c-7.8,8.4-12.7,19.6-13.2,31.8h6.6c1.1-1.8,0.7-3.2,1.1-4.2  c0.4-1,0.9-1.9,1.5-2.8c0.5-0.8,1-1.7,2.1-1.7c2.2,0,2.7-1.1,4.1-1.8c1.4-0.6,3.8-1,3.5-1.7c-0.2-0.5-5.1,1.4-5.2,1  c-0.2-0.6,1.5-0.6,2.3-1.2c0.1-0.1,0.3-0.2,0.4-0.3C176.4,88.3,178.5,85,181,82.2z M179.3,91c0.1-0.1,0.3-0.1,0.4-0.2  c1.6-0.9,3.8-0.8,4.7-0.4c1.2,0.5,2.7,1.8,3.4,2.3c0.3,0.2,0.4-0.2,1.8-0.4c0.6-0.1,0.7,0.5,1.5,0.6c0.3,0,0.6,0.1,0.9,0l-8.3-8.3  C182,86.7,180.5,88.8,179.3,91z M170,101.3c-1.1-0.1-2.1,0.3-2.7,1.2c-0.4,0.6-0.5,1.3-0.4,2h4.8c0-0.9,0.1-1.8,0.2-2.7  C171.4,101.5,170.7,101.3,170,101.3z M183.7,127.9l9.5-9.5c-0.8-0.9-1.5-2-2-3c0,0,0,0,0,0c-0.1,0.2-0.3,0.3-0.4,0.5  c-0.2,0.4,0.1,1.8-0.5,2.4c-0.8,0.8-2.8-1.7-3.4-1.9c-0.9-0.3-1.3,0.7-1.2,1c0.1,0.7,0,1-0.3,1.1c-0.3,0.1-1.9-1-1.2-1.3  c0.8-0.3-0.2-1-0.6-1.3c-0.6-0.5-1.6,0-2-0.7c-0.5-0.7-1.4-1.2-1.7-1.2c-0.2-0.1-1.1-0.5-1.7-0.1c-0.5,0.3-1-0.3-1.4-0.6  c-0.2-0.2-0.4-0.4-0.6-0.6C177.2,118.4,179.9,123.7,183.7,127.9z M193.2,111.5c0-0.1,0-0.2,0-0.3c0,0,0,0,0-0.1c0-0.1,0-0.1,0-0.2  c0,0,0-0.1,0-0.1c0,0,0-0.1,0-0.1c0,0,0,0,0-0.1c0,0,0,0,0-0.1c0-0.1,0-0.2,0.1-0.3c0,0,0,0,0,0c0-0.1,0-0.2,0.1-0.2c0,0,0,0,0-0.1  c0-0.1,0-0.1,0.1-0.2c0,0,0,0,0-0.1c0,0,0-0.1,0.1-0.1c0,0,0,0,0-0.1c0-0.1,0.1-0.1,0.1-0.2c0.1-0.2,0.3-0.2,0.5-0.2  c0.3,0,0.8,0.3,1.2,0.3c0.3,0,0.6-0.1,0.8-0.4c0.1-0.1,0.2-0.3,0.3-0.5c0.1-0.2,0.1-0.3,0.1-0.5c0-0.1,0-0.1,0-0.2  c-0.1-0.1-0.3-0.2-0.6-0.1c-0.1,0-0.2,0.1-0.2,0.1c-0.2,0-0.3,0.1-0.5,0.1c-0.1,0-0.1,0-0.2,0c-0.2,0-0.4-0.1-0.5-0.3  c0-0.1-0.1-0.1-0.1-0.2c0-0.1-0.1-0.2-0.2-0.3c-0.2-0.3-0.6-0.5-0.9-0.7c-0.2-0.1-0.4-0.2-0.5-0.4c-0.1-0.1-0.2-0.2-0.3-0.3  c-0.1-0.1-0.1-0.1-0.2-0.2c0,0-0.1,0-0.1-0.1c0,0-0.1-0.1-0.1-0.1c0,0-0.1-0.1-0.1-0.1c0,0-0.1-0.1-0.1-0.1c0,0-0.1-0.1-0.1-0.1  c0,0-0.1,0-0.1-0.1c0,0-0.1-0.1-0.1-0.1c0,0-0.1,0-0.1,0c0,0-0.1,0-0.2-0.1c0,0,0,0-0.1,0c-0.1,0-0.1,0-0.2,0c0,0,0,0,0,0  c-0.4-0.1-0.9,0-1.4,0.5c0,0,0,0,0,0c-0.1,0.1-0.1,0.1-0.2,0.2c0,0,0,0,0,0c-0.1,0.1-0.1,0.2-0.2,0.3c0,0,0,0,0,0  c-0.1,0.1-0.1,0.2-0.2,0.4c-0.1,0.3-0.3,0.6-0.4,0.9c-1.1,2.8-2.3,2-2.1,3c0,0.1,0.3,0.2,0.8,0.2c0.2,0,0.4,0,0.6,0  c0.2,0,0.4,0,0.7,0c0.2,0,0.5,0,0.7-0.1c0.1,0,0.2,0,0.3,0c0.1,0,0.1,0,0.2,0c0.1,0,0.1,0,0.2,0c0.1,0,0.1,0,0.2,0  c0.1,0,0.1,0,0.2-0.1c0,0,0.1,0,0.1,0c0.1,0,0.2-0.1,0.3-0.1c0.1-0.1,0.3-0.1,0.4-0.2c0,0,0,0,0,0c0.1,0,0.3-0.1,0.4-0.1  c0.3-0.1,0.5,0,0.7,0c0.1,0.1,0.5,0.2,0.7,0.5C193,110.7,193.2,111.2,193.2,111.5z M206,70.3V56.8c-12.3,0.5-23.4,5.4-31.8,13.2  l9.5,9.5C189.7,74.1,197.5,70.7,206,70.3z M206,53.1V39.7c-17,0.5-32.4,7.3-43.9,18.2l9.5,9.5C180.7,58.9,192.7,53.6,206,53.1z   M159.4,60.6c-10.9,11.5-17.8,27-18.2,43.9h13.4c0.5-13.3,5.8-25.4,14.3-34.5L159.4,60.6z M141.2,108.2c0.2,7,1.5,13.6,3.6,19.9  c0.1,0,0.2,0,0.2,0c1.4-0.1,3.2,0,4-0.7c1.3-1,0.1-4.7,0.9-6.2c1-1.9,3.6-6.3,4.3-6.4c0.7,0,0.6,0.5,1,0.6c-0.4-2.4-0.7-4.8-0.7-7.2  H141.2z M206,176.8c-18-0.5-34.4-7.7-46.6-19.3l-9.5,9.5c15.2,14.6,35,22.8,56.1,23.2V176.8z M206,159.7  c-11.9-0.4-23.1-4.7-32.2-12.3c0.2,0.2,0.4,0.5,0.5,0.7c0.6,1.1,2.8,3.2,1.4,4.1c-1.1,0.7-3,0.2-4.1,0.2c-1.2,0-2.9,1.7-3.8,1.9  c-1.3,0.2-2,0.1-3.2-0.4c-0.3-0.1-0.7-0.4-1.1-0.6l-1.5,1.5c11.5,10.9,27,17.8,43.9,18.2V159.7z M206,154.9  c-1.9,0.1-4.7,0.1-5.4-0.4c-1.4-1-3.1-1.9-3.3-2.7c-0.3-1.3-2.2-2.3-2.2-3.6c0-1.4,1.9-1.9,1.4-3.3c-0.4-1.1,0.7-2.5,2.7-3.5  c-5.9-1.4-11.2-4.3-15.6-8.3l-9.5,9.5c8.7,8.1,19.9,12.7,31.8,13.2V154.9z M208.9,137c1.4-0.2,2.9-0.7,4.2-0.8  c1.4-0.1-0.1,1.9,0.8,1.9c1,0.1,5.1,0.8,5.4-0.1c0.2-0.8,0.3-1.1,1.2-1.3c1.7-0.4,3-0.3,4.4-1.4c0.5-0.4,1.6-0.5,1.9-1.1  c0.3-0.6-0.2-3.3-1.2-2.9c-0.5,0.2-1.1,0.9-2.1,1.5c-1,0.5-1.6,0.7-2.3-0.2c-0.6-0.8,0.4-1.5,0.9-2c0.8-0.9,1.5-1.7,2.4-1.7  c0.3,0,2.1-0.9,2-1.7c-0.2-1.1-2.3,0.1-2.8-0.3c-0.3-0.3,0-1.1-0.3-1.2c-0.2-0.1-1,0.9-0.4,1.5c0.3,0.3-0.5,1.1-1.4,0.5  c-0.7-0.5-0.9,2.1-0.8,2.6c0.1,0.5,1,0.3,0.4,1.2c-0.6,0.8-0.9,0.2-1.4,0.6c-0.6,0.5-0.7,0.7,0,1.4c0.6,0.6-0.3,1.7-0.5,0.6  c-0.1-0.7-1.6-0.5-1.8-1.3c-0.3-0.8-1.5-0.7-2.9-1.4c-1.1-0.6-0.9,1.1,0.9,1.5c1.6,0.4,1.5,0.5,1,1.5c-0.4,0.8-0.3-0.6-2.1-1.1  c-1.2-0.3-1.2-0.9-2.2-0.9c-0.9,0-0.6,0.9-1.6,0.7c-0.8-0.2-0.9,0.8-1.6,1.1c-0.8,0.4-0.8,1.9-1.7,2.3c-1.3,0.6-3.9,0.2-3.8-1.1  c0.1-1.3,0.2-2.2,0.9-2.7c0.6-0.4,1.7,0.8,2.6,0.3c0.9-0.4,0.7-1.4,0.1-2.1c-0.2-0.2-0.9-0.6-0.8-0.8c0-0.3,1.4-0.4,2-0.8  c0.7-0.5,1.4-1.7,1.8-1.9c0.4-0.3,1.1-0.4,1.2-0.6c0.1-0.3-0.5-1-0.5-1.4c0.1-0.4,0.2-0.7,0.5-0.7c0.3,0,0.7,1,0.5,1.2  c-0.2,0.3,0.2,0.7,0.6,0.5c0.4-0.2,2-0.8,2.5-0.9c0.6-0.2-0.2-1.6,0-1.8c0.2-0.2,0.4,0.1,0.6-0.2c0.2-0.2-0.5-0.5-0.4-1  c0.1-0.4,1.7-0.8,1.3-1.1c-0.5-0.3-1.1,0.6-1.4,0.7c-0.8,0.4-1.2-0.5-1.2-1.2c0-0.3,0.5-1.5,0.1-1.7c-0.5-0.3-0.6,1.1-0.7,1.4  c-0.1,0.4-0.5,0.9,0.1,2.1c0.3,0.6,0.2,2.7-0.5,2.9c-0.7,0.2-1-1-1.3-1.6c-0.1-0.1-0.1-0.2-0.2-0.2c0,0,0,0,0,0c0,0-0.1,0-0.1,0h0  c0,0-0.1,0-0.1,0c0,0,0,0,0,0c0,0-0.1,0.1-0.1,0.1c-0.1,0.1-0.1,0.2-0.2,0.3c0,0.1-0.1,0.3-0.3,0.7c-0.1,0.2-0.2,0.4-0.5,0.4  c-0.7,0.1-1.4,0.1-2.1,0.1c-0.3,0-0.5,0-0.8,0c0.1,0.4,0.2,0.9,0.4,1.2c0.4,0.7,1.1,1.3,1,1.8c-0.1,0.5-2.3,1-2.5,0.6  c-0.2-0.5,0.5-1.4,0.5-1.9c-0.1-0.8-0.5-1.3-0.5-1.8c-3.8-0.4-7.3-1.9-10.2-4.2l-9.5,9.5c4.7,4.2,10.6,7,17.1,7.9  c0.9-0.6,1.3-1.6,2-1C206.6,138.3,208,137.2,208.9,137z M209.8,159.7v13.4c5.4-0.2,10.7-1,15.7-2.3c-1-0.9-1.5-2.3-2.8-2.8  c-2.2-0.8-2.8-2.1-1.6-4.1c0.7-1.1,0.4-1.5-0.4-2.6c-0.9-1.4-2.1-2-3-2.4C215.1,159.3,212.5,159.6,209.8,159.7z M216.2,155.2  c-0.4-0.5-1.3-0.5-2-0.3c-2.2,0.6-1.5-1.1-4.5-0.7v1.7C212,155.8,214.1,155.6,216.2,155.2z M265.9,167l-9.5-9.5  c-4.9,4.7-10.5,8.6-16.6,11.7c-2,1.5-4.5,2.6-6.3,3.5c-0.8,0.4-1.6,0.8-2.5,0.8c-0.3,0-0.5-0.1-0.8-0.2c-6.5,2.2-13.3,3.4-20.4,3.6  v13.4C230.9,189.8,250.7,181.6,265.9,167z M247.1,70c0,0.1-0.1,0.1-0.1,0.2c2.2,2.4,4.2,5,5.9,7.7c0.2-0.3,0.4-0.5,0.6-0.2  c0.5,0.5-0.5,1.5,0.9,1.3c0.8-0.2,0.7,0.9,0,1.5c0.4,0.8,0.9,1.6,1.2,2.4c0.5,0.2,0.9,0.5,0.9,0.8c0.2,0.9,0.7,2,0.8,3  c0.7,1.7,1.3,3.4,1.8,5.2c0.7-0.6,1.5-0.3,1.6,0.7s-0.2,2.1-0.7,2.9c0.6,2.9,1,5.9,1.1,8.9h13.4c-0.2-8.7-2.2-17.3-5.7-25.2  c-0.3,0.2-0.6,0.2-1.1,0.8c-0.7,0.9-1.8-0.2-2.4-1c-1.1-1.4-3.8-5.3-5-5.5c-1-0.2-1.7-1.5-2.8-1.7c-1-0.2-2.3-0.8-2.5-1.9  c-0.2-1.1-0.6-1.6-1.8-1.8c-1.3-0.2-2.2-0.7-3.2-1.7l-3.2,3.2C247.1,69.9,247.1,70,247.1,70z M255.6,151.5l0.7,0.7  c10.9-11.5,17.8-27,18.2-43.9h-13.4c-0.5,13.3-5.8,25.4-14.3,34.5l4.8,4.8c0-0.1,0.1-0.1,0.1-0.2c0.4-0.8,0.2-2,0.3-2.7  c0-0.5,1.9-0.4,2,0.5c0.1,0.7,0.5,1.2,1.1,3C255.7,149.3,255.9,150.5,255.6,151.5z M245.4,159.8c-0.4,0.9-2.1,2.4-1.8,2.9  c3.6-2.3,7-4.9,10.1-7.9l-9.5-9.5c-0.7,0.6-1.3,1.2-2,1.8c-0.2,1.1,0,1.9,1.3,2.3c1.4,0.4,3.8,1.9,3.3,3.3c-0.6,1.3-2,3.2-2.7,4.4  C243.6,158.3,245.9,158.8,245.4,159.8z M247.6,104.3c0,0.1-0.1,0.1-0.1,0.2h9.9c-0.1-1.4-0.2-2.8-0.3-4.2c-0.1,0.1-0.2,0.3-0.2,0.4  c-0.7,1.5-0.8,0.6-0.8-0.1c0.1-0.9,0.4-1.6,0.7-2.5c-0.1-0.5-0.2-0.9-0.2-1.4c-0.3,0.4-0.7,0.7-1.4,1.1c-0.4,0.2-0.8,1.2-1,1.6  c-0.2,0.5-1.3-0.1-2.2,0.3c-1.6,0.8-3.2,0.9-2,2.5C250.7,103.3,248.2,103,247.6,104.3z M244.2,72.7l-9.5,9.5  c1.6,1.8,3.1,3.8,4.3,5.9c1.1,0.2,2.6,0.6,3.6,1.9c0.7,0.9,2.7,2.7,2.4,3.5c-0.2,0.5,0.2,1.1,0.7,1.4c0.7,0.5,1.2,0.5,1.6,0  c0.7-0.9,0.8-2.1,1.7-2.9c1.1-0.9,3.5,1.8,3.5,2.3c0,0.5-0.6,0.6-0.8,1.5c-0.2,1.2-1.3,2.6-0.1,3c1.7,0.6,1.9-0.1,2.7-1.3  c0.4-0.6,0.3-1.4,0.7-2c0.3-0.3,0.6-0.5,1-0.7c-0.6-2.7-1.5-5.2-2.5-7.7c-0.3-0.2-0.5-0.4-0.9-0.6c-0.6-0.2-0.3-0.7-1.1-1  c-0.9-0.3-1.3-0.6-1.4-2.2c-0.1-1.3,1.1,0.4,1.4,0.2c0.1,0,0.1-0.1,0.2-0.2C249.7,79.4,247.2,75.9,244.2,72.7z M232.7,85.6  c-0.5,0-0.8-0.1-1.1-0.2l-3.1,3.1c0.6,0.2,1.3-0.1,2,0.3c0.8,0.4,0.4-2.3,1.7-2.1c1.3,0.2,1.6,1.1,0.6,1.5c-0.9,0.3,0.2,1-0.8,1.4  c-1,0.3,0.8,1.2,0.8,1.5c0,0.5-1.3,0.7,0.6,1.3c1.9,0.6,0-1.6,0.3-1.9c0.4-0.4,1.4,0.6,1.7,0.2c0.1-0.2,0.3-0.4,0.5-0.7  C234.9,88.3,233.8,86.9,232.7,85.6z M227.8,135.3c0,0.7-0.6,0.1-0.8,0.4c-0.2,0.2,5.3,2.8,6.1,2.9c0.6,0.1,1.7,0.5,3.7,0.1  c1.3-0.3,1.7,0.3,2.3,0.3c0.9,0,1.5-1.2,2-2c1.4-1.9,1.1-2.2,1.5-2.5c0.5-0.4,1.8,2.6,1.6,4.5c0,0.3-0.1,0.6-0.1,0.8l0.1,0.1  c7.8-8.4,12.7-19.6,13.2-31.8h-10.2c0.4,0.6,1,1.3,1.6,2.7c0.5,1.1,0.8,2.7,1.7,2.8c1.4,0.1,2.8,1.3,2.9,2.3c0.1,2-6.2,2.5-7,2.3  c-0.7-0.2-1.2-0.3-1.2,0.8c-0.1,1.2-2.3,1.2-3.2,2c-1,0.8-1.1,2.3-1.7,3.4c-0.4,0.6-2.7,2.8-3.4,3.3c-1.5,1.1-4.4,1.1-3.1,1.8  c0.9,0.5,3,0.7,2.8,0.2c-0.3-0.6,0.2-0.6,0.5-0.2c0.3,0.3,1.3-0.3,1.2-1c0-0.6-0.2-1.6,0.4-1.6c0.9-0.1,1.9-1.1,2.3-1  c0.5,0.1,1.2,1.2,0.7,4.7c-0.5,3.5-2.2,5.9-2.8,7c-0.7,1.2-1.4,0.3-2.4-0.2c-1.2-0.6-3.1-0.6-4.3-1  C231.5,136.2,227.8,134.8,227.8,135.3z M291.7,108.2h-13.4c-0.5,18-7.7,34.4-19.3,46.6l9.5,9.5C283.1,149.1,291.3,129.3,291.7,108.2  z M268.5,48.4l-9.9,9.9c0.9,1.6,2.6,3.6,5,6c1,1,2,2,2.9,2.9c0.8,0.9,6.3,7.6,5.2,8.6c-0.1,0.1-0.2,0.1-0.2,0.2  c4.2,8.8,6.6,18.6,6.8,28.5h13.4C291.3,83.4,283.1,63.6,268.5,48.4z M209.8,35.9c11.2,0.3,22,3.2,31.6,8.4c0.9-0.1,1.8-0.3,2.4-0.5  c1.2-0.6,3.5,0.7,4.7,1.4c1,0.6,1.8,1.5,3,2.1c1.2,0.7,3,2.5,3.4,4.4c0.4,1.9,1.6,1.8,1,2.5c-0.3,0.4,0.2,0.5,0.7,0.9l9.3-9.3  c-15.2-14.6-35-22.8-56.1-23.2V35.9z M209.8,53.1c11.4,0.4,21.9,4.4,30.3,10.8c-1-1.3-1.9-2.6-2.4-3.1c-0.8-0.9-3.9-2-3.6-2.5  c0.3-0.5,3,1.7,3.5,1.3c0.6-0.5-1.4-3-1.2-3.1c0.2-0.1,2.5,2.1,3.6,4.1c0.5,0.7,1.7,0.3,2.7,1c0.9,0.6,0.9,1.6,1.6,2.2  c0.1,0.1,1.7,1,0.8,0.9c-0.3,0-0.7-0.6-0.9-0.3c-0.2,0.2,0.1,1.1,0.6,2.1l4.5-4.5c-0.6-1.3-1.9-3-2.8-3.3c-0.9-0.2-1.5,0.5-2.1,1.1  c-0.6,0.5-1.4,0.7-1.5,0.3c-0.1-0.4,0.1-1.4,0.1-1.8c-0.1-0.5-0.5-0.9-0.6-1.4c-0.3-1.2,0.2-2.5-0.6-3.2c-0.8-0.8-1.3-2.1-1.9-3.1  c-0.7-1.1-1.9-2.7-1.9-4.1c-8.7-4.4-18.3-6.8-28.2-7.1V53.1z M209.8,70.3c8.6,0.4,16.3,3.9,22.3,9.3l9.5-9.5  c-8.4-7.8-19.6-12.7-31.8-13.2V70.3z M209.8,87.5c1.3,0.1,2.5,0.4,3.8,0.8c0.3-0.8,1.1-1.2,1.8-1.6c0.8-0.5,1.3-1.1,1.2,0.3  c-0.1,1-0.5,1.6-1,2c1.3,0.6,2.6,1.3,3.7,2.1c0.3,0.2,0.5,0.4,0.7,0.6l1.3-1.3c0,0,0-0.1,0-0.1c0-0.7,1.1-1.6,2.3-2.1l4.2-4.2  c-0.1,0-0.2,0-0.3-0.1c-0.6-0.1-1.4,1.1-1.9,0.8c-0.6-0.4,1.8-2.5,2.9-2.1c0.1,0.1,0.3,0.1,0.5,0.2l0.5-0.5  c-5.3-4.7-12.1-7.7-19.7-8.2V87.5z M207.9,91.1c-1.6,0-3.1,0.2-4.6,0.7c-0.2,0.2-0.3,0.4-0.2,0.5c0.4,0.5,1.5-0.6,1.6,0.4  c0.1,0.8-1.2,0.2-1.1,0.8c0.1,0.4,1,0.3,1.1,0.9c0,0.6-0.6,1.7-1,2c-0.6,0.4-3.8,0.8-4.1,1.6c-0.3,0.7-0.6,1.2-1.1,1.8  c-0.5,0.6-3.1,2.1-3.1,2.5c0,0.9,1.2-0.3,1.6-0.6c0.6-0.6,1.3-0.6,2.1-1.1c1.1-0.6,1.6,1.6,0.4,1.7c-0.8,0.1-1.4,2.2-2.6,1.8  c-0.3-0.1-1.2-0.6-1.3-0.1c-0.2,0.6,1.8,0.7,2.4,1.1c1.6,1-1.2,1-1.6,1.3c-0.4,0.3-0.2,0.9,0.4,0.6c0.6-0.2,1.4-0.8,1.7,0.1  c0.5,1.3-2.2,6.2-3,5.7c-0.4-0.3-0.9,0.1-1.3,0.3c0.5,1.1,1.2,2.1,2,3.1c0.5-0.9,1.4-2.1,1.7-2.1c0.5,0,0.3-0.4,0.5-0.8  c0.2-0.4,0.8,0,0.9-0.6c0-0.6,1.5-1.4,1.7-2.3c0.1-0.5-0.5-0.9-0.2-1.3c0.3-0.5,0.5-0.5,0.8-0.6c0.3-0.1,1,0.6,1.2,0.3  c0.2-0.3,1.3-0.1,2.1,0.4c0.4,0.2,1.1,0,1.5,0.6c0.6,0.8,0,0.9,0.1,1.1c0.1,0.2,0.4-0.1,0.5,0c0.3,0.3-1.6,1.4-1.3,2  c0.2,0.6-1.6,3.6-2.1,4.1c-0.7,0.6-1.8-0.1-2.3,0.1c-0.5,0.1-0.6,0.6-1.3,0.4c-0.6-0.1-1.3,0.1-1.9,0.4c2.7,2.4,6.2,3.8,10.1,3.8  c0.8,0,1.6-0.1,2.4-0.2c0.5-0.6,0.7-1.4,0.8-2.2c0.1-0.4,0-1,0.2-1.4c0.2-0.3,1.4-1.9,1.9-1.8c0.4,0,0.7,0.4,1.4,0.2  c1.2-0.4,2-0.1,2,0.5c0,0.7-1.5,0.5-1.5,0.9c0,0.3,1.2,0.7,1.5,0.3c0.7-0.8,0.6-1.8,0.4-2c-0.5-0.6-0.5-0.9,0.2-0.6  c0.4,0.1,0.4-1.6,0.8-2.2c0.6-0.9-1-0.3-1.7-0.2c-0.6,0.1-1.2-1.3-1.2-1.7c0-0.3,1.2,1.2,1.8,1.2c0.7,0,1.5-0.8,1.5-1.3  c0-0.6-1.3-0.7-1.5-1.4c-0.1-0.4,1.1,0,1-0.4c-0.1-0.3,0.1-1.1-0.6-1.5c-0.7-0.3-1.4-2.7-2-2.9c-0.5-0.1-1,0.6-1.3,0.8  c-0.3,0.3-0.8-0.2-0.6-0.4c0.4-0.4,1.3-1.1,1.5-1.7c0.3-1,1.6,0.1,1.4-1.4c-0.2-1.5-1.6-1.2-0.9-2c0.6-0.7,0.2-2-1.1-1.7  c-0.6,0.1-1.2-0.8-1.3-1.7c0-0.5-1.3-0.4-1.3-0.9c0.1-1-1.4-1.1-2.2-1c-0.9,0.1-2.6-1.3-2.8-1.6c-0.2-0.3-1.4,0.3-1-1  c0.4-1.3,1.6,0.2,2.1-0.1c0.6-0.4,0.4-0.8,0.3-1.1C208.1,91.1,208,91.1,207.9,91.1z M149.9,45.8l9.5,9.5  C171.7,43.7,188,36.4,206,35.9V22.5C184.9,23,165.1,31.2,149.9,45.8z M124.1,104.5h13.4c0.5-18,7.7-34.4,19.3-46.6l-9.5-9.5  C132.7,63.6,124.5,83.4,124.1,104.5z"/>
</svg>